# Blender v2.93.5 OBJ File: 'pen blend.blend'
# www.blender.org
mtllib pen blend.mtl
o Cone
v 0.000000 -1.000000 -1.000000
v 0.195090 -1.000000 -0.980785
v 0.382683 -1.000000 -0.923880
v 0.555570 -1.000000 -0.831470
v 0.707107 -1.000000 -0.707107
v 0.831470 -1.000000 -0.555570
v 0.923880 -1.000000 -0.382683
v 0.980785 -1.000000 -0.195090
v 1.000000 -1.000000 0.000000
v 0.980785 -1.000000 0.195090
v 0.923880 -1.000000 0.382683
v 0.831470 -1.000000 0.555570
v 0.707107 -1.000000 0.707107
v 0.555570 -1.000000 0.831470
v 0.382683 -1.000000 0.923880
v 0.195090 -1.000000 0.980785
v -0.000000 -1.000000 1.000000
v -0.195090 -1.000000 0.980785
v -0.382683 -1.000000 0.923880
v -0.555570 -1.000000 0.831470
v -0.707107 -1.000000 0.707107
v -0.831469 -1.000000 0.555570
v -0.923880 -1.000000 0.382684
v -0.980785 -1.000000 0.195090
v -1.000000 -1.000000 -0.000000
v -0.980785 -1.000000 -0.195090
v -0.923879 -1.000000 -0.382684
v -0.831470 -1.000000 -0.555570
v -0.707107 -1.000000 -0.707107
v -0.555570 -1.000000 -0.831470
v -0.382683 -1.000000 -0.923880
v -0.195090 -1.000000 -0.980785
v 0.000000 1.000000 0.000000
v 0.000000 -4.780867 -1.000000
v 0.195090 -4.780867 -0.980785
v 0.382684 -4.780867 -0.923880
v 0.555570 -4.780867 -0.831470
v 0.707107 -4.780867 -0.707107
v 0.831470 -4.780867 -0.555570
v 0.923880 -4.780867 -0.382683
v 0.980785 -4.780867 -0.195090
v 1.000000 -4.780867 0.000000
v 0.980785 -4.780867 0.195090
v 0.923880 -4.780867 0.382683
v 0.831470 -4.780867 0.555570
v 0.707107 -4.780867 0.707107
v 0.555570 -4.780867 0.831470
v 0.382684 -4.780867 0.923880
v 0.195090 -4.780867 0.980785
v 0.000000 -4.780867 1.000000
v -0.195090 -4.780867 0.980785
v -0.382683 -4.780867 0.923880
v -0.555570 -4.780867 0.831470
v -0.707107 -4.780867 0.707107
v -0.831469 -4.780867 0.555570
v -0.923879 -4.780867 0.382684
v -0.980785 -4.780867 0.195090
v -1.000000 -4.780867 -0.000000
v -0.980785 -4.780867 -0.195090
v -0.923879 -4.780867 -0.382684
v -0.831470 -4.780867 -0.555570
v -0.707107 -4.780867 -0.707107
v -0.555570 -4.780867 -0.831470
v -0.382683 -4.780867 -0.923880
v -0.195090 -4.780867 -0.980785
v 0.000000 -5.917227 -1.000000
v 0.195090 -5.917227 -0.980785
v 0.382684 -5.917227 -0.923880
v 0.555570 -5.917227 -0.831470
v 0.707107 -5.917227 -0.707107
v 0.831470 -5.917227 -0.555570
v 0.923880 -5.917227 -0.382683
v 0.980785 -5.917227 -0.195090
v 1.000000 -5.917227 0.000000
v 0.980785 -5.917227 0.195090
v 0.923880 -5.917227 0.382683
v 0.831470 -5.917227 0.555570
v 0.707107 -5.917227 0.707107
v 0.555570 -5.917227 0.831470
v 0.382684 -5.917227 0.923880
v 0.195090 -5.917227 0.980785
v 0.000000 -5.917227 1.000000
v -0.195090 -5.917227 0.980785
v -0.382683 -5.917227 0.923880
v -0.555570 -5.917227 0.831470
v -0.707107 -5.917227 0.707107
v -0.831469 -5.917227 0.555570
v -0.923879 -5.917227 0.382684
v -0.980785 -5.917227 0.195090
v -1.000000 -5.917227 -0.000000
v -0.980785 -5.917227 -0.195090
v -0.923879 -5.917227 -0.382684
v -0.831470 -5.917227 -0.555570
v -0.707107 -5.917227 -0.707107
v -0.555570 -5.917227 -0.831470
v -0.382683 -5.917227 -0.923880
v -0.195090 -5.917227 -0.980785
v 0.000000 -7.203713 -0.746042
v 0.145546 -7.203713 -0.731707
v 0.285498 -7.203713 -0.689253
v 0.414479 -7.203713 -0.620311
v 0.527531 -7.203713 -0.527531
v 0.620311 -7.203713 -0.414479
v 0.689253 -7.203713 -0.285498
v 0.731707 -7.203713 -0.145546
v 0.746042 -7.203713 0.000000
v 0.731707 -7.203713 0.145546
v 0.689253 -7.203713 0.285498
v 0.620311 -7.203713 0.414479
v 0.527531 -7.203713 0.527531
v 0.414479 -7.203713 0.620311
v 0.285498 -7.203713 0.689253
v 0.145546 -7.203713 0.731707
v 0.000000 -7.203713 0.746042
v -0.145545 -7.203713 0.731707
v -0.285498 -7.203713 0.689253
v -0.414478 -7.203713 0.620311
v -0.527531 -7.203713 0.527531
v -0.620311 -7.203713 0.414479
v -0.689252 -7.203713 0.285498
v -0.731707 -7.203713 0.145546
v -0.746042 -7.203713 0.000000
v -0.731707 -7.203713 -0.145546
v -0.689253 -7.203713 -0.285498
v -0.620311 -7.203713 -0.414479
v -0.527531 -7.203713 -0.527531
v -0.414478 -7.203713 -0.620311
v -0.285498 -7.203713 -0.689253
v -0.145545 -7.203713 -0.731707
v 0.000000 -6.865463 -0.890472
v 0.173722 -6.865463 -0.873361
v 0.340769 -6.865463 -0.822688
v 0.494720 -6.865463 -0.740400
v 0.629659 -6.865463 -0.629658
v 0.740400 -6.865463 -0.494719
v 0.822689 -6.865463 -0.340769
v 0.873361 -6.865463 -0.173722
v 0.890472 -6.865463 0.000000
v 0.873362 -6.865463 0.173722
v 0.822689 -6.865463 0.340769
v 0.740400 -6.865463 0.494719
v 0.629659 -6.865463 0.629658
v 0.494720 -6.865463 0.740400
v 0.340769 -6.865463 0.822688
v 0.173722 -6.865463 0.873361
v 0.000000 -6.865463 0.890472
v -0.173722 -6.865463 0.873361
v -0.340769 -6.865463 0.822688
v -0.494719 -6.865463 0.740400
v -0.629658 -6.865463 0.629658
v -0.740400 -6.865463 0.494720
v -0.822688 -6.865463 0.340769
v -0.873361 -6.865463 0.173722
v -0.890471 -6.865463 -0.000000
v -0.873361 -6.865463 -0.173722
v -0.822688 -6.865463 -0.340769
v -0.740400 -6.865463 -0.494719
v -0.629658 -6.865463 -0.629658
v -0.494719 -6.865463 -0.740400
v -0.340769 -6.865463 -0.822688
v -0.173722 -6.865463 -0.873361
v -0.923879 -2.890434 -0.382684
v -0.980785 -2.890434 -0.195090
v 0.923880 -2.890434 -0.382683
v 0.831470 -2.890434 -0.555570
v 0.555570 -2.890434 0.831470
v 0.707107 -2.890434 0.707107
v -0.707107 -2.890434 0.707107
v -0.555570 -2.890434 0.831470
v -0.831470 -2.890434 -0.555570
v 0.980785 -2.890434 -0.195090
v 0.195090 -2.890434 -0.980785
v 0.000000 -2.890434 -1.000000
v 0.382684 -2.890434 0.923880
v -0.831469 -2.890434 0.555570
v -0.707107 -2.890434 -0.707107
v 1.000000 -2.890434 0.000000
v 0.195090 -2.890434 0.980785
v -0.923879 -2.890434 0.382684
v 0.382684 -2.890434 -0.923880
v -0.555570 -2.890434 -0.831470
v 0.980785 -2.890434 0.195090
v -0.000000 -2.890434 1.000000
v -0.980785 -2.890434 0.195090
v 0.555570 -2.890434 -0.831470
v -0.382683 -2.890434 -0.923880
v 0.923880 -2.890434 0.382683
v -0.195090 -2.890434 0.980785
v -1.000000 -2.890434 -0.000000
v 0.707107 -2.890434 -0.707107
v -0.195090 -2.890434 -0.980785
v 0.831470 -2.890434 0.555570
v -0.382683 -2.890434 0.923880
v -0.861901 -4.780867 -0.938772
v -0.710364 -4.780867 -1.063135
v -0.537477 -4.780867 -1.155545
v -0.861901 -2.890434 -0.938772
v -0.710364 -2.890434 -1.063135
v -0.537477 -2.890434 -1.155545
vt 0.250000 0.490000
vt 0.250000 0.250000
vt 0.296822 0.485388
vt 0.341844 0.471731
vt 0.383337 0.449553
vt 0.419706 0.419706
vt 0.449553 0.383337
vt 0.471731 0.341844
vt 0.485388 0.296822
vt 0.490000 0.250000
vt 0.485388 0.203178
vt 0.471731 0.158156
vt 0.449553 0.116663
vt 0.419706 0.080294
vt 0.383337 0.050447
vt 0.341844 0.028269
vt 0.296822 0.014612
vt 0.250000 0.010000
vt 0.203178 0.014612
vt 0.158156 0.028269
vt 0.116663 0.050447
vt 0.080294 0.080294
vt 0.050447 0.116663
vt 0.028269 0.158156
vt 0.014612 0.203178
vt 0.010000 0.250000
vt 0.014612 0.296822
vt 0.028269 0.341844
vt 0.050447 0.383337
vt 0.080294 0.419706
vt 0.116663 0.449553
vt 0.158156 0.471731
vt 0.014612 0.296822
vt 0.028269 0.341844
vt 0.028269 0.341844
vt 0.014612 0.296822
vt 0.203178 0.485388
vt 0.250000 0.490000
vt 0.296822 0.485388
vt 0.296822 0.485388
vt 0.250000 0.490000
vt 0.449553 0.383337
vt 0.471731 0.341844
vt 0.471731 0.341844
vt 0.449553 0.383337
vt 0.419706 0.080294
vt 0.383337 0.050447
vt 0.383337 0.050447
vt 0.419706 0.080294
vt 0.116663 0.050447
vt 0.080294 0.080294
vt 0.080294 0.080294
vt 0.116663 0.050447
vt 0.050447 0.383337
vt 0.050447 0.383337
vt 0.485388 0.296822
vt 0.485388 0.296822
vt 0.250000 0.490000
vt 0.296822 0.485388
vt 0.341844 0.028269
vt 0.341844 0.028269
vt 0.050447 0.116663
vt 0.050447 0.116663
vt 0.080294 0.419706
vt 0.080294 0.419706
vt 0.490000 0.250000
vt 0.490000 0.250000
vt 0.296822 0.014612
vt 0.296822 0.014612
vt 0.028269 0.158156
vt 0.028269 0.158156
vt 0.341844 0.471731
vt 0.341844 0.471731
vt 0.116663 0.449553
vt 0.158156 0.471731
vt 0.158156 0.471731
vt 0.116663 0.449553
vt 0.485389 0.203178
vt 0.485388 0.203178
vt 0.250000 0.010000
vt 0.250000 0.010000
vt 0.014612 0.203178
vt 0.014612 0.203178
vt 0.383337 0.449553
vt 0.383337 0.449553
vt 0.158156 0.471731
vt 0.116663 0.449553
vt 0.116663 0.449553
vt 0.158156 0.471731
vt 0.471731 0.158156
vt 0.471731 0.158156
vt 0.203178 0.014612
vt 0.203178 0.014612
vt 0.010000 0.250000
vt 0.010000 0.250000
vt 0.419706 0.419706
vt 0.419706 0.419706
vt 0.203178 0.485388
vt 0.203178 0.485388
vt 0.449553 0.116663
vt 0.449553 0.116663
vt 0.158156 0.028269
vt 0.158156 0.028269
vt 0.383337 0.449553
vt 0.419706 0.419706
vt 0.419706 0.419706
vt 0.383337 0.449553
vt 0.080294 0.419706
vt 0.050447 0.383337
vt 0.296822 0.014612
vt 0.341844 0.028269
vt 0.341844 0.471731
vt 0.116663 0.449553
vt 0.250000 0.010000
vt 0.158156 0.471731
vt 0.203178 0.014612
vt 0.203178 0.485388
vt 0.158156 0.028269
vt 0.449553 0.383337
vt 0.116663 0.050447
vt 0.471731 0.341844
vt 0.080294 0.080294
vt 0.485388 0.296822
vt 0.050447 0.116663
vt 0.490000 0.250000
vt 0.028269 0.158156
vt 0.485388 0.203178
vt 0.014612 0.203178
vt 0.471731 0.158156
vt 0.010000 0.250000
vt 0.449553 0.116663
vt 0.014612 0.296822
vt 0.419706 0.080294
vt 0.028269 0.341844
vt 0.383337 0.050447
vt 0.750000 0.399245
vt 0.779116 0.396377
vt 0.807113 0.387884
vt 0.832916 0.374093
vt 0.855532 0.355532
vt 0.874093 0.332916
vt 0.887884 0.307114
vt 0.896377 0.279116
vt 0.899245 0.250000
vt 0.896377 0.220884
vt 0.887884 0.192886
vt 0.874093 0.167084
vt 0.855532 0.144468
vt 0.832916 0.125907
vt 0.807114 0.112116
vt 0.779116 0.103623
vt 0.750000 0.100755
vt 0.720884 0.103623
vt 0.692886 0.112116
vt 0.667084 0.125907
vt 0.644468 0.144468
vt 0.625908 0.167084
vt 0.612116 0.192886
vt 0.603623 0.220884
vt 0.600755 0.250000
vt 0.603623 0.279116
vt 0.612116 0.307114
vt 0.625907 0.332916
vt 0.644468 0.355532
vt 0.667084 0.374093
vt 0.692886 0.387884
vt 0.720884 0.396377
vt 0.203178 0.485388
vt 0.158156 0.471731
vt 0.158156 0.028269
vt 0.203178 0.014612
vt 0.449553 0.383337
vt 0.250000 0.490000
vt 0.116663 0.050447
vt 0.471731 0.341844
vt 0.080294 0.080294
vt 0.485388 0.296822
vt 0.050447 0.116663
vt 0.490000 0.250000
vt 0.028269 0.158156
vt 0.485388 0.203178
vt 0.014612 0.203178
vt 0.471731 0.158156
vt 0.010000 0.250000
vt 0.449553 0.116663
vt 0.014612 0.296822
vt 0.419706 0.080294
vt 0.028269 0.341844
vt 0.383337 0.050447
vt 0.050447 0.383337
vt 0.341844 0.028269
vt 0.296822 0.485388
vt 0.080294 0.419706
vt 0.296822 0.014612
vt 0.341844 0.471731
vt 0.116663 0.449553
vt 0.250000 0.010000
vt 0.750000 0.490000
vt 0.796822 0.485388
vt 0.841844 0.471731
vt 0.883337 0.449553
vt 0.919706 0.419706
vt 0.949553 0.383337
vt 0.971731 0.341844
vt 0.985388 0.296822
vt 0.990000 0.250000
vt 0.985388 0.203178
vt 0.971731 0.158156
vt 0.949553 0.116663
vt 0.919706 0.080294
vt 0.883337 0.050447
vt 0.841844 0.028269
vt 0.796822 0.014612
vt 0.750000 0.010000
vt 0.703178 0.014612
vt 0.658156 0.028269
vt 0.616663 0.050447
vt 0.580294 0.080294
vt 0.550447 0.116663
vt 0.528269 0.158156
vt 0.514612 0.203178
vt 0.510000 0.250000
vt 0.514612 0.296822
vt 0.528269 0.341844
vt 0.550447 0.383337
vt 0.580294 0.419706
vt 0.616663 0.449553
vt 0.658156 0.471731
vt 0.703178 0.485388
vt 0.080294 0.419706
vt 0.080294 0.419706
vn 0.0878 0.4455 -0.8910
vn 0.2599 0.4455 -0.8567
vn 0.4220 0.4455 -0.7896
vn 0.5680 0.4455 -0.6921
vn 0.6921 0.4455 -0.5680
vn 0.7896 0.4455 -0.4220
vn 0.8567 0.4455 -0.2599
vn 0.8910 0.4455 -0.0878
vn 0.8910 0.4455 0.0878
vn 0.8567 0.4455 0.2599
vn 0.7896 0.4455 0.4220
vn 0.6921 0.4455 0.5680
vn 0.5680 0.4455 0.6921
vn 0.4220 0.4455 0.7896
vn 0.2599 0.4455 0.8567
vn 0.0878 0.4455 0.8910
vn -0.0878 0.4455 0.8910
vn -0.2599 0.4455 0.8567
vn -0.4220 0.4455 0.7896
vn -0.5680 0.4455 0.6921
vn -0.6921 0.4455 0.5680
vn -0.7896 0.4455 0.4220
vn -0.8567 0.4455 0.2599
vn -0.8910 0.4455 0.0878
vn -0.8910 0.4455 -0.0878
vn -0.8567 0.4455 -0.2599
vn -0.7896 0.4455 -0.4220
vn -0.6921 0.4455 -0.5680
vn -0.5680 0.4455 -0.6921
vn -0.4220 0.4455 -0.7896
vn -0.9569 0.0000 -0.2903
vn -0.2599 0.4455 -0.8567
vn -0.0878 0.4455 -0.8910
vn 0.0980 0.0000 -0.9952
vn 0.8819 0.0000 -0.4714
vn 0.6344 0.0000 0.7730
vn -0.6344 -0.0000 0.7730
vn -0.8819 -0.0000 -0.4714
vn 0.9569 0.0000 -0.2903
vn 0.4714 0.0000 0.8819
vn -0.7730 -0.0000 0.6344
vn -0.7730 -0.0000 -0.6344
vn 0.9952 0.0000 -0.0980
vn 0.2903 0.0000 0.9569
vn -0.8819 -0.0000 0.4714
vn 0.2903 0.0000 -0.9569
vn 0.0000 1.0000 -0.0000
vn 0.9952 0.0000 0.0980
vn 0.0980 0.0000 0.9952
vn -0.9569 -0.0000 0.2903
vn 0.4714 0.0000 -0.8819
vn 0.0000 -1.0000 0.0000
vn 0.9569 0.0000 0.2903
vn -0.0980 -0.0000 0.9952
vn -0.9952 -0.0000 0.0980
vn 0.6344 0.0000 -0.7730
vn -0.2903 -0.0000 -0.9569
vn 0.8819 0.0000 0.4714
vn -0.2903 -0.0000 0.9569
vn -0.9952 -0.0000 -0.0980
vn 0.7730 0.0000 -0.6344
vn -0.0980 -0.0000 -0.9952
vn 0.7730 0.0000 0.6344
vn -0.4714 -0.0000 0.8819
vn 0.6302 -0.1142 -0.7680
vn -0.6344 -0.0000 -0.7730
vn -0.4714 -0.0000 -0.8819
vn -0.2884 -0.1142 -0.9507
vn -0.2884 -0.1142 0.9507
vn 0.7680 -0.1142 -0.6302
vn -0.0974 -0.1142 -0.9887
vn -0.4683 -0.1142 0.8762
vn 0.8762 -0.1142 -0.4683
vn -0.6302 -0.1142 0.7680
vn 0.9507 -0.1142 -0.2884
vn -0.7680 -0.1142 0.6302
vn 0.9887 -0.1142 -0.0974
vn -0.8762 -0.1142 0.4683
vn 0.9887 -0.1142 0.0974
vn -0.9507 -0.1142 0.2884
vn 0.9507 -0.1142 0.2884
vn -0.9887 -0.1142 0.0974
vn 0.8762 -0.1142 0.4683
vn -0.9887 -0.1142 -0.0974
vn 0.7680 -0.1142 0.6302
vn -0.9507 -0.1142 -0.2884
vn 0.6302 -0.1142 0.7680
vn -0.8762 -0.1142 -0.4683
vn 0.4683 -0.1142 0.8762
vn 0.0974 -0.1142 -0.9887
vn -0.7680 -0.1142 -0.6302
vn 0.2884 -0.1142 0.9507
vn 0.2884 -0.1142 -0.9507
vn -0.6302 -0.1142 -0.7680
vn 0.0974 -0.1142 0.9887
vn 0.4683 -0.1142 -0.8762
vn -0.4683 -0.1142 -0.8762
vn -0.0974 -0.1142 0.9887
vn 0.0902 -0.3911 -0.9159
vn 0.2672 -0.3911 -0.8807
vn 0.4339 -0.3911 -0.8117
vn 0.5839 -0.3911 -0.7114
vn 0.7114 -0.3911 -0.5839
vn 0.8117 -0.3911 -0.4339
vn 0.8807 -0.3911 -0.2672
vn 0.9159 -0.3911 -0.0902
vn 0.9159 -0.3911 0.0902
vn 0.8807 -0.3911 0.2672
vn 0.8117 -0.3911 0.4339
vn 0.7114 -0.3911 0.5839
vn 0.5839 -0.3911 0.7114
vn 0.4339 -0.3911 0.8117
vn 0.2672 -0.3911 0.8807
vn 0.0902 -0.3911 0.9159
vn -0.0902 -0.3911 0.9159
vn -0.2672 -0.3911 0.8807
vn -0.4339 -0.3911 0.8117
vn -0.5839 -0.3911 0.7114
vn -0.7114 -0.3911 0.5839
vn -0.8117 -0.3911 0.4339
vn -0.8807 -0.3911 0.2672
vn -0.9159 -0.3911 0.0902
vn -0.9159 -0.3911 -0.0902
vn -0.8807 -0.3911 -0.2672
vn -0.8117 -0.3911 -0.4339
vn -0.7114 -0.3911 -0.5839
vn -0.5839 -0.3911 -0.7114
vn -0.4339 -0.3911 -0.8117
vn -0.2672 -0.3911 -0.8807
vn -0.0902 -0.3911 -0.9159
vn 0.8315 0.0000 -0.5556
vn -0.8315 -0.0000 0.5556
usemtl None
s off
f 1/1/1 33/2/1 2/3/1
f 2/3/2 33/2/2 3/4/2
f 3/4/3 33/2/3 4/5/3
f 4/5/4 33/2/4 5/6/4
f 5/6/5 33/2/5 6/7/5
f 6/7/6 33/2/6 7/8/6
f 7/8/7 33/2/7 8/9/7
f 8/9/8 33/2/8 9/10/8
f 9/10/9 33/2/9 10/11/9
f 10/11/10 33/2/10 11/12/10
f 11/12/11 33/2/11 12/13/11
f 12/13/12 33/2/12 13/14/12
f 13/14/13 33/2/13 14/15/13
f 14/15/14 33/2/14 15/16/14
f 15/16/15 33/2/15 16/17/15
f 16/17/16 33/2/16 17/18/16
f 17/18/17 33/2/17 18/19/17
f 18/19/18 33/2/18 19/20/18
f 19/20/19 33/2/19 20/21/19
f 20/21/20 33/2/20 21/22/20
f 21/22/21 33/2/21 22/23/21
f 22/23/22 33/2/22 23/24/22
f 23/24/23 33/2/23 24/25/23
f 24/25/24 33/2/24 25/26/24
f 25/26/25 33/2/25 26/27/25
f 26/27/26 33/2/26 27/28/26
f 27/28/27 33/2/27 28/29/27
f 28/29/28 33/2/28 29/30/28
f 29/30/29 33/2/29 30/31/29
f 30/31/30 33/2/30 31/32/30
f 163/33/31 162/34/31 60/35/31 59/36/31
f 31/32/32 33/2/32 32/37/32
f 32/37/33 33/2/33 1/1/33
f 34/38/34 35/39/34 67/40/34 66/41/34
f 165/42/35 164/43/35 40/44/35 39/45/35
f 167/46/36 166/47/36 47/48/36 46/49/36
f 169/50/37 168/51/37 54/52/37 53/53/37
f 162/34/38 170/54/38 61/55/38 60/35/38
f 164/43/39 171/56/39 41/57/39 40/44/39
f 173/58/34 172/59/34 35/39/34 34/38/34
f 166/47/40 174/60/40 48/61/40 47/48/40
f 168/51/41 175/62/41 55/63/41 54/52/41
f 170/54/42 176/64/42 62/65/42 61/55/42
f 171/56/43 177/66/43 42/67/43 41/57/43
f 174/60/44 178/68/44 49/69/44 48/61/44
f 175/62/45 179/70/45 56/71/45 55/63/45
f 172/59/46 180/72/46 36/73/46 35/39/46
f 181/74/47 186/75/47 199/76/47 198/77/47
f 177/66/48 182/78/48 43/79/48 42/67/48
f 178/68/49 183/80/49 50/81/49 49/69/49
f 179/70/50 184/82/50 57/83/50 56/71/50
f 180/72/51 185/84/51 37/85/51 36/73/51
f 64/86/52 63/87/52 195/88/52 196/89/52
f 182/78/53 187/90/53 44/91/53 43/79/53
f 183/80/54 188/92/54 51/93/54 50/81/54
f 184/82/55 189/94/55 58/95/55 57/83/55
f 185/84/56 190/96/56 38/97/56 37/85/56
f 186/75/57 191/98/57 65/99/57 64/86/57
f 187/90/58 192/100/58 45/101/58 44/91/58
f 188/92/59 193/102/59 52/103/59 51/93/59
f 189/94/60 163/33/60 59/36/60 58/95/60
f 190/96/61 165/42/61 39/45/61 38/97/61
f 191/98/62 173/58/62 34/38/62 65/99/62
f 192/100/63 167/46/63 46/49/63 45/101/63
f 193/102/64 169/50/64 53/53/64 52/103/64
f 69/104/65 70/105/65 134/106/65 133/107/65
f 61/55/42 62/65/42 94/108/42 93/109/42
f 48/61/44 49/69/44 81/110/44 80/111/44
f 35/39/46 36/73/46 68/112/46 67/40/46
f 62/65/66 63/87/66 95/113/66 94/108/66
f 49/69/49 50/81/49 82/114/49 81/110/49
f 36/73/51 37/85/51 69/104/51 68/112/51
f 63/87/67 64/86/67 96/115/67 95/113/67
f 50/81/54 51/93/54 83/116/54 82/114/54
f 37/85/56 38/97/56 70/105/56 69/104/56
f 64/86/57 65/99/57 97/117/57 96/115/57
f 51/93/59 52/103/59 84/118/59 83/116/59
f 38/97/61 39/45/61 71/119/61 70/105/61
f 65/99/62 34/38/62 66/41/62 97/117/62
f 52/103/64 53/53/64 85/120/64 84/118/64
f 39/45/35 40/44/35 72/121/35 71/119/35
f 53/53/37 54/52/37 86/122/37 85/120/37
f 40/44/39 41/57/39 73/123/39 72/121/39
f 54/52/41 55/63/41 87/124/41 86/122/41
f 41/57/43 42/67/43 74/125/43 73/123/43
f 55/63/45 56/71/45 88/126/45 87/124/45
f 42/67/48 43/79/48 75/127/48 74/125/48
f 56/71/50 57/83/50 89/128/50 88/126/50
f 43/79/53 44/91/53 76/129/53 75/127/53
f 57/83/55 58/95/55 90/130/55 89/128/55
f 44/91/58 45/101/58 77/131/58 76/129/58
f 58/95/60 59/36/60 91/132/60 90/130/60
f 45/101/63 46/49/63 78/133/63 77/131/63
f 59/36/31 60/35/31 92/134/31 91/132/31
f 46/49/36 47/48/36 79/135/36 78/133/36
f 60/35/38 61/55/38 93/109/38 92/134/38
f 47/48/40 48/61/40 80/111/40 79/135/40
f 98/136/52 99/137/52 100/138/52 101/139/52 102/140/52 103/141/52 104/142/52 105/143/52 106/144/52 107/145/52 108/146/52 109/147/52 110/148/52 111/149/52 112/150/52 113/151/52 114/152/52 115/153/52 116/154/52 117/155/52 118/156/52 119/157/52 120/158/52 121/159/52 122/160/52 123/161/52 124/162/52 125/163/52 126/164/52 127/165/52 128/166/52 129/167/52
f 96/115/68 97/117/68 161/168/68 160/169/68
f 83/116/69 84/118/69 148/170/69 147/171/69
f 70/105/70 71/119/70 135/172/70 134/106/70
f 97/117/71 66/41/71 130/173/71 161/168/71
f 84/118/72 85/120/72 149/174/72 148/170/72
f 71/119/73 72/121/73 136/175/73 135/172/73
f 85/120/74 86/122/74 150/176/74 149/174/74
f 72/121/75 73/123/75 137/177/75 136/175/75
f 86/122/76 87/124/76 151/178/76 150/176/76
f 73/123/77 74/125/77 138/179/77 137/177/77
f 87/124/78 88/126/78 152/180/78 151/178/78
f 74/125/79 75/127/79 139/181/79 138/179/79
f 88/126/80 89/128/80 153/182/80 152/180/80
f 75/127/81 76/129/81 140/183/81 139/181/81
f 89/128/82 90/130/82 154/184/82 153/182/82
f 76/129/83 77/131/83 141/185/83 140/183/83
f 90/130/84 91/132/84 155/186/84 154/184/84
f 77/131/85 78/133/85 142/187/85 141/185/85
f 91/132/86 92/134/86 156/188/86 155/186/86
f 78/133/87 79/135/87 143/189/87 142/187/87
f 92/134/88 93/109/88 157/190/88 156/188/88
f 79/135/89 80/111/89 144/191/89 143/189/89
f 66/41/90 67/40/90 131/192/90 130/173/90
f 93/109/91 94/108/91 158/193/91 157/190/91
f 80/111/92 81/110/92 145/194/92 144/191/92
f 67/40/93 68/112/93 132/195/93 131/192/93
f 94/108/94 95/113/94 159/196/94 158/193/94
f 81/110/95 82/114/95 146/197/95 145/194/95
f 68/112/96 69/104/96 133/107/96 132/195/96
f 95/113/97 96/115/97 160/169/97 159/196/97
f 82/114/98 83/116/98 147/171/98 146/197/98
f 99/137/99 98/136/99 130/198/99 131/199/99
f 100/138/100 99/137/100 131/199/100 132/200/100
f 101/139/101 100/138/101 132/200/101 133/201/101
f 102/140/102 101/139/102 133/201/102 134/202/102
f 103/141/103 102/140/103 134/202/103 135/203/103
f 104/142/104 103/141/104 135/203/104 136/204/104
f 105/143/105 104/142/105 136/204/105 137/205/105
f 106/144/106 105/143/106 137/205/106 138/206/106
f 107/145/107 106/144/107 138/206/107 139/207/107
f 108/146/108 107/145/108 139/207/108 140/208/108
f 109/147/109 108/146/109 140/208/109 141/209/109
f 110/148/110 109/147/110 141/209/110 142/210/110
f 111/149/111 110/148/111 142/210/111 143/211/111
f 112/150/112 111/149/112 143/211/112 144/212/112
f 113/151/113 112/150/113 144/212/113 145/213/113
f 114/152/114 113/151/114 145/213/114 146/214/114
f 115/153/115 114/152/115 146/214/115 147/215/115
f 116/154/116 115/153/116 147/215/116 148/216/116
f 117/155/117 116/154/117 148/216/117 149/217/117
f 118/156/118 117/155/118 149/217/118 150/218/118
f 119/157/119 118/156/119 150/218/119 151/219/119
f 120/158/120 119/157/120 151/219/120 152/220/120
f 121/159/121 120/158/121 152/220/121 153/221/121
f 122/160/122 121/159/122 153/221/122 154/222/122
f 123/161/123 122/160/123 154/222/123 155/223/123
f 124/162/124 123/161/124 155/223/124 156/224/124
f 125/163/125 124/162/125 156/224/125 157/225/125
f 126/164/126 125/163/126 157/225/126 158/226/126
f 127/165/127 126/164/127 158/226/127 159/227/127
f 128/166/128 127/165/128 159/227/128 160/228/128
f 129/167/129 128/166/129 160/228/129 161/229/129
f 98/136/130 129/167/130 161/229/130 130/198/130
f 19/20/64 20/21/64 169/50/64 193/102/64
f 12/13/63 13/14/63 167/46/63 192/100/63
f 32/37/62 1/1/62 173/58/62 191/98/62
f 5/6/61 6/7/61 165/42/61 190/96/61
f 25/26/60 26/27/60 163/33/60 189/94/60
f 18/19/59 19/20/59 193/102/59 188/92/59
f 11/12/58 12/13/58 192/100/58 187/90/58
f 31/32/57 32/37/57 191/98/57 186/75/57
f 4/5/56 5/6/56 190/96/56 185/84/56
f 24/25/55 25/26/55 189/94/55 184/82/55
f 17/18/54 18/19/54 188/92/54 183/80/54
f 10/11/53 11/12/53 187/90/53 182/78/53
f 30/31/67 31/32/67 186/75/67 181/74/67
f 3/4/51 4/5/51 185/84/51 180/72/51
f 23/24/50 24/25/50 184/82/50 179/70/50
f 16/17/49 17/18/49 183/80/49 178/68/49
f 9/10/48 10/11/48 182/78/48 177/66/48
f 29/30/66 30/31/66 181/74/66 176/64/66
f 2/3/46 3/4/46 180/72/46 172/59/46
f 22/23/45 23/24/45 179/70/45 175/62/45
f 15/16/44 16/17/44 178/68/44 174/60/44
f 8/9/43 9/10/43 177/66/43 171/56/43
f 28/29/42 29/30/42 176/64/42 170/54/42
f 21/22/41 22/23/41 175/62/41 168/51/41
f 14/15/40 15/16/40 174/60/40 166/47/40
f 1/1/34 2/3/34 172/59/34 173/58/34
f 7/8/39 8/9/39 171/56/39 164/43/39
f 27/28/38 28/29/38 170/54/38 162/34/38
f 20/21/37 21/22/37 168/51/37 169/50/37
f 13/14/36 14/15/36 166/47/36 167/46/36
f 6/7/35 7/8/35 164/43/35 165/42/35
f 26/27/31 27/28/31 162/34/31 163/33/31
f 197/230/66 198/77/66 195/88/66 194/231/66
f 198/77/67 199/76/67 196/89/67 195/88/67
f 186/75/131 64/86/131 196/89/131 199/76/131
f 176/64/47 181/74/47 198/77/47 197/230/47
f 63/87/52 62/65/52 194/231/52 195/88/52
f 62/65/132 176/64/132 197/230/132 194/231/132
